<?xml version="1.0" encoding="UTF-8"?>
<svg width="64px" height="64px" viewBox="0 0 64 64" version="1.1" xmlns="http://www.w3.org/2000/svg">
    <g stroke="none" stroke-width="1" fill="none" fill-rule="evenodd">
        <g fill="#6366f1">
            <path d="M32,0 C14.326,0 0,14.326 0,32 C0,49.674 14.326,64 32,64 C49.674,64 64,49.674 64,32 C64,14.326 49.674,0 32,0 Z M32,56 C16.418,56 4,43.582 4,32 C4,20.418 16.418,8 32,8 C47.582,8 60,20.418 60,32 C60,43.582 47.582,56 32,56 Z"/>
            <path d="M32,16 C24.326,16 16,24.326 16,32 C16,39.674 24.326,48 32,48 C39.674,48 48,39.674 48,32 C48,24.326 39.674,16 32,16 Z"/>
        </g>
    </g>
</svg>
